<?xml version="1.0" encoding="utf-8"?>
<!DOCTYPE svg PUBLIC "-//W3C//DTD SVG 1.1//EN" "http://www.w3.org/Graphics/SVG/1.1/DTD/svg11.dtd">
<svg  version="1.1" id="Layer_1" xmlns="http://www.w3.org/2000/svg"
xmlns:xlink="http://www.w3.org/1999/xlink" width="600" height="630"
viewBox="-50 -50 550 550" overflow="visible" enable-background="new -50 -50 550 550"
xml:space="preserve">
<text x="150" y="5"  font-family="Liberation Serif" font-style="italic"
font-size="20" stroke="#000000">zxyz = zxzyz</text>
<polygon fill="none" stroke="#000000" points="190,10 110,90 "/>
<polygon fill="none" stroke="#000000" points="210,10 290,90 "/>
<text x="60" y="105"  font-family="Liberation Serif" font-style="italic"
font-size="20" stroke="#000000">zxy = zxzy</text>
<polygon fill="none" stroke="#000000" points="090,110 10,190 "/>
<polygon fill="none" stroke="#000000" points="110,110 190,190 "/>
<text x="260" y="105"  font-family="Liberation Serif" font-style="italic"
font-size="20" stroke="#000000">yxz = yzxz</text>
<polygon fill="none" stroke="#000000" points="290,110 210,190 "/>
<polygon fill="none" stroke="#000000" points="310,110 390,190 "/>
<text x="-30"   y="205"  font-family="Liberation Serif" font-style="italic"
font-size="20" stroke="#000000">xy = xyx</text>
<polygon fill="none" stroke="#000000" points="010,210 090,290 "/>
<text x="150" y="205"  font-family="Liberation Serif" font-style="italic"
font-size="20" stroke="#000000">zxyz = zyxz</text>
<polygon fill="none" stroke="#000000" points="190,210 110,290 "/>
<polygon fill="none" stroke="#000000" points="200,210 200,290 "/>
<polygon fill="none" stroke="#000000" points="210,210 290,290 "/>
<text x="370" y="205"  font-family="Liberation Serif" font-style="italic"
font-size="20" stroke="#000000">xy = yxy</text>
<polygon fill="none" stroke="#000000" points="310,290 390,210 "/>
<text x="060" y="305"  font-family="Liberation Serif" font-style="italic"
font-size="20" stroke="#000000">zxy = zyx</text>
<polygon fill="none" stroke="#000000" points="100,310 100,390 "/>
<polygon fill="none" stroke="#000000" points="110,310 190,390 "/>
<text x="160" y="305"  font-family="Liberation Serif" font-style="italic"
font-size="20" stroke="#000000">xyx = x</text>
<polygon fill="none" stroke="#000000" points="190,310 110,390 "/>
<polygon fill="none" stroke="#000000" points="210,310 290,390 "/>
<text x="260" y="305"  font-family="Liberation Serif" font-style="italic"
font-size="20" stroke="#000000">xyz = yxz</text>
<polygon fill="none" stroke="#000000" points="290,310 210,390 "/>
<polygon fill="none" stroke="#000000" points="300,310 300,390 "/>
<text x="070" y="405"  font-family="Liberation Serif" font-style="italic"
font-size="20" stroke="#000000">xy = x</text>
<polygon fill="none" stroke="#000000" points="110,410 190,490 "/>
<text x="170" y="405"  font-family="Liberation Serif" font-style="italic"
font-size="20" stroke="#000000">xy = yx</text>
<polygon fill="none" stroke="#000000" points="200,410 200,490 "/>
<text x="270" y="405"  font-family="Liberation Serif" font-style="italic"
font-size="20" stroke="#000000">xy = y</text>
<polygon fill="none" stroke="#000000" points="290,410 210,490 "/>
<text x="180" y="505"  font-family="Liberation Serif" font-style="italic"
font-size="20" stroke="#000000">x = y</text>
</svg>
